<svg width="45" height="45" viewBox="0 0 45 45" fill="none" xmlns="http://www.w3.org/2000/svg">
<path d="M33.9701 20.2088H33.0278V20.1603H22.4999V24.8393H29.1108C28.1464 27.5631 25.5548 29.5184 22.4999 29.5184C18.6239 29.5184 15.4813 26.3758 15.4813 22.4998C15.4813 18.6238 18.6239 15.4812 22.4999 15.4812C24.2891 15.4812 25.9168 16.1561 27.1562 17.2586L30.4648 13.95C28.3756 12.0029 25.5811 10.8021 22.4999 10.8021C16.0399 10.8021 10.8022 16.0398 10.8022 22.4998C10.8022 28.9598 16.0399 34.1975 22.4999 34.1975C28.9599 34.1975 34.1976 28.9598 34.1976 22.4998C34.1976 21.7155 34.1169 20.9498 33.9701 20.2088Z" fill="#FFC107"/>
<path d="M12.1504 17.0551L15.9937 19.8737C17.0336 17.299 19.5521 15.4812 22.4993 15.4812C24.2885 15.4812 25.9162 16.1561 27.1556 17.2586L30.4643 13.95C28.3751 12.0029 25.5805 10.8021 22.4993 10.8021C18.0062 10.8021 14.1097 13.3388 12.1504 17.0551Z" fill="#FF3D00"/>
<path d="M22.5003 34.1978C25.5218 34.1978 28.2672 33.0415 30.343 31.1611L26.7225 28.0975C25.5086 29.0207 24.0253 29.52 22.5003 29.5188C19.4577 29.5188 16.8743 27.5787 15.901 24.8713L12.0864 27.8103C14.0224 31.5986 17.954 34.1978 22.5003 34.1978Z" fill="#4CAF50"/>
<path d="M33.9701 20.2088H33.0279V20.1603H22.5V24.8393H29.1109C28.6496 26.1357 27.8186 27.2685 26.7205 28.0977L26.7223 28.0966L30.3427 31.1602C30.0865 31.393 34.1977 28.3486 34.1977 22.4998C34.1977 21.7155 34.117 20.9499 33.9701 20.2088Z" fill="#1976D2"/>
</svg>
